<svg xmlns="http://www.w3.org/2000/svg" viewBox="0 0 99.04 113.17"><defs><style>.cls-1{fill:#d7d7d7;}.cls-2{fill:#ef4137;}.cls-3{fill:#0f3020;}</style></defs><g id="Layer_2" data-name="Layer 2"><g id="Layer_1-2" data-name="Layer 1"><path class="cls-1" d="M86.36,25.76a2,2,0,0,0,.22-1.93c-.29-.66-3.74-2.4-3.74-2.1a2.93,2.93,0,0,0-3.9-2.52A3.88,3.88,0,0,0,73.35,16a2.78,2.78,0,0,0-4.07-2.49,4.39,4.39,0,0,0-5.67-2.13,3.43,3.43,0,0,0-5-2.48,2,2,0,1,0-3.85-.66c0-1.84-2.48-3-4.08-2.8a3.94,3.94,0,0,0-1.83.69,3.88,3.88,0,0,0-1.34,1.53,3.87,3.87,0,0,0-3.84-1c-.36.09-3.66,2-3.25,2.27A3.62,3.62,0,0,0,34.7,11.7a3.29,3.29,0,0,0-5,2.16A4.39,4.39,0,0,0,24,17.23a4.68,4.68,0,0,0-6.89,4.36,2.17,2.17,0,0,0-2.61.81,1.85,1.85,0,0,0,.21,2.06,3,3,0,0,0-2.33.67c-1.61,1.36-.7,3.09.77,4.15.29.22,1.92,1.15,2.2.61A2.66,2.66,0,0,0,15.72,33a2.53,2.53,0,0,0,3.21.16A3.11,3.11,0,0,0,24.43,36a3.62,3.62,0,0,0,3.36,3.92c.59,0,1.4-.35,1.84-.08s.75,1.09,1.18,1.43a4.33,4.33,0,0,0,5.71-.2,4.28,4.28,0,0,0,1.87,2.72,3.89,3.89,0,0,0,3.4.49,3.18,3.18,0,0,0,1.77,2.55,3,3,0,0,0,3.07-.41,2.59,2.59,0,0,0,2.26,2.15,2.5,2.5,0,0,0,1.55-.39c.41-.25.76-1.07,1.17-1.19s1.4.44,1.88.49a5.1,5.1,0,0,0,2.09-.22,5,5,0,0,0,3.06-3,4.16,4.16,0,0,0,3.89.31c1.43-.65,2-1.91,2.71-3.21A4.43,4.43,0,0,0,71.93,39a2.67,2.67,0,0,0,2.84-.33c.73-.61.43-1.85,1.07-2.4.38-.32.83-.07,1.33-.12a3,3,0,0,0,1.69-.7,3.13,3.13,0,0,0,1-2.72,3.55,3.55,0,0,0,3.1-.12,3.41,3.41,0,0,0,1.1-1c.31-.41.37-1.26.67-1.57s.9-.28,1.21-.49a2.51,2.51,0,0,0,1-1.29A2.55,2.55,0,0,0,86.36,25.76Zm-12.69-.37c-.12,2-2,3.27-3.37,4.21l-.4.28a50.42,50.42,0,0,1-6.7,4l-.47.24a63,63,0,0,1-6.68,3l-.39.15a13.65,13.65,0,0,1-4.16,1.08h-.08A11,11,0,0,1,48,37.64l-.72-.23A42,42,0,0,1,40,34.56a62.93,62.93,0,0,1-7.19-4.35l-.49-.35c-1.45-1-3.43-2.38-3.51-4.4a3.42,3.42,0,0,1,1.46-2.85,53.71,53.71,0,0,1,16.25-8.95l.44-.15a16.26,16.26,0,0,1,3.74-.93l.66,0a7,7,0,0,1,1,.08,39,39,0,0,1,10.7,4.08l1.13.59a58.49,58.49,0,0,1,5.13,2.89,25.05,25.05,0,0,1,2.89,2.2A3.64,3.64,0,0,1,73.67,25.39Z"/><path class="cls-2" d="M44.93,28.08a113.36,113.36,0,0,0-8.39-7.88,57.25,57.25,0,0,0-5.25,3.71c-2.38,1.93.94,3.83,2.47,4.93a57.86,57.86,0,0,0,7,4.23,39.42,39.42,0,0,0,7,2.74,12.81,12.81,0,0,0,3.75.88c.09,0,.2,0,.3,0C49.57,33.73,47.37,30.8,44.93,28.08Z"/><path class="cls-2" d="M57.53,26.3c-1.39-4-2.61-8.18-4.73-11.86l-.72-.15a4.78,4.78,0,0,0-1.26,0,17.48,17.48,0,0,0-3.81,1,54.85,54.85,0,0,0-6.75,2.86c-.73.36-1.44.75-2.13,1.14A87.66,87.66,0,0,1,47,27.8c2.3,2.74,4.46,5.58,6.63,8.42.66-.22,1.3-.47,1.8-.65C57,35,58.36,34.4,59.7,33.75A63.89,63.89,0,0,0,57.53,26.3Z"/><path class="cls-2" d="M71.12,23.65a23.5,23.5,0,0,0-2.71-2c-2-1.28-4.06-2.32-6.12-3.4a47.34,47.34,0,0,0-7.09-3.11,84.51,84.51,0,0,1,4.52,12.1C60.34,29.1,60.91,31,61.35,33l1.1-.54a48.41,48.41,0,0,0,6.48-3.9C70.55,27.37,73.45,25.69,71.12,23.65Z"/><path class="cls-3" d="M98.09,69.57c-1.45-.85-4.15,1.13-5.43,1.55a27.53,27.53,0,0,0-5.47,2.19,5.38,5.38,0,0,0-2.55,3,.86.86,0,0,1-.25.49c-1,.7-.3-2.19-.2-2.47A6.65,6.65,0,0,1,86,71.82a16.12,16.12,0,0,1,5.63-2.93,21.08,21.08,0,0,0,4.69-2.12c3.32-2.18,2.53-6.51,2.53-9.92V26.68c.23-1.34-.28-2.77-2-4.29a59.74,59.74,0,0,0-6.43-4.88c-4.65-3-9.64-5.49-14.55-8.08C68.51,5.59,59.82,1.6,51.59.15a11,11,0,0,0-3-.09,42.08,42.08,0,0,0-9.05,2.38A123.88,123.88,0,0,0,2.21,23C.68,24.25.14,25.49.22,26.68c0,3.27-.3,6.55-.08,9.82.19,3,.36,5,3.19,6.47,1.46.76,3.4,1.12,4.82,1.92C11.9,47,12.84,52.21,17.58,53a20.11,20.11,0,0,1,7.81,2.6,8.72,8.72,0,0,1,3.35,4.62c.16.55.68,2.25-.35,1.86-.58-.23-.77-1.35-1.11-1.81a25.26,25.26,0,0,0-1.6-2.1,7.18,7.18,0,0,0-5-2.4,25,25,0,0,1-3.77-.41c-2.5-.74-5-1.86-6.61-4.06a19.2,19.2,0,0,0-7.91-5.66C-.87,44.36.22,49.5.22,51.19v5.53c0,1.41-.25,3.12.87,4.23s2.75.26,4,1.07c.87.57,1.5,2.13,2.07,3a9.62,9.62,0,0,0,1.38,1.84,3.27,3.27,0,0,0,2,1,7,7,0,0,1,1.12,0c.48.11.92.59.55,1s-1.59.17-2,.15A6,6,0,0,1,6.8,67.81c-2-1.55-1-3.93-4.32-3.89C-1,64,.23,68,.23,70.37V83.79c0,.59-.29,2.17,0,2.71.27,3.21,5.18,6.12,7.84,8a140.89,140.89,0,0,0,16.62,10,94,94,0,0,0,16.54,6.49c2.88.88,5.85,2.13,8.91,2.09,2.82,0,6.9-1.7,9.49-2.66A159.09,159.09,0,0,0,76.22,103a116.08,116.08,0,0,0,15.39-9.26c2.65-1.87,6.73-4.33,7.22-7.25a3.23,3.23,0,0,0,0-1.16c-.48-2.89,0-6.27,0-9.19,0-1.53.63-4.85-.28-6.15A1.44,1.44,0,0,0,98.09,69.57ZM28.84,41.45h0a5.18,5.18,0,0,1-1,.11h-.21a5.37,5.37,0,0,1-2.54-.85,5.25,5.25,0,0,1-1.79-2,4.82,4.82,0,0,1-1.51.24,4.7,4.7,0,0,1-2.1-.49,4.87,4.87,0,0,1-2.46-3.08,4.15,4.15,0,0,1-2.72-1.12,4.1,4.1,0,0,1-1.23-3,7.66,7.66,0,0,1-1.16-.65,5.1,5.1,0,0,1-2.31-3.75,3.74,3.74,0,0,1,1.44-3,4.68,4.68,0,0,1,1.32-.79,3.46,3.46,0,0,1,3-3.23A6.46,6.46,0,0,1,18.39,16a6.31,6.31,0,0,1,3.41-1,6.42,6.42,0,0,1,1.16.11,6.26,6.26,0,0,1,5.38-3.19h.28A5.21,5.21,0,0,1,33,9.48a4.63,4.63,0,0,1,.54,0A5.42,5.42,0,0,1,36.05,7a5.32,5.32,0,0,1,4-.18A15.64,15.64,0,0,1,43.28,5a6,6,0,0,1,1.52-.19,5.42,5.42,0,0,1,2.38.52,6.43,6.43,0,0,1,.76-.62,5.73,5.73,0,0,1,2.62-1l.48,0A6.2,6.2,0,0,1,55,5.2a3.59,3.59,0,0,1,1.8-.48,2.71,2.71,0,0,1,.56,0,3.59,3.59,0,0,1,2.44,1.66L60,6.8h.14a5.32,5.32,0,0,1,4.52,2.56,5.68,5.68,0,0,1,.59,0A6.21,6.21,0,0,1,70,11.5l.51,0A4.73,4.73,0,0,1,74,13.06a4.66,4.66,0,0,1,.59.83l.43,0a5.91,5.91,0,0,1,4.14,1.78,5.37,5.37,0,0,1,1.13,1.7,4.76,4.76,0,0,1,4,3.06c1.46.61,3.42,1.8,3.84,2.74a3.69,3.69,0,0,1,.16,2.43,4.11,4.11,0,0,1-1.34,5.36,3,3,0,0,1-.9.4,4,4,0,0,1-.58,1.29,5.24,5.24,0,0,1-1.65,1.43,5.15,5.15,0,0,1-2.47.63,4.86,4.86,0,0,1-1.39,2,4.68,4.68,0,0,1-2.63,1.09l-.29,0H77a3.53,3.53,0,0,1-1.13,2.12,4.33,4.33,0,0,1-2.76,1h-.22a6.2,6.2,0,0,1-3.12,2.5,6.05,6.05,0,0,1-2,.34A6.19,6.19,0,0,1,66,43.51a6,6,0,0,1-2.74,2.58,5.72,5.72,0,0,1-2.33.49,6.29,6.29,0,0,1-1.5-.19,6.61,6.61,0,0,1-3.27,2.42,6.28,6.28,0,0,1-2.07.34c-.25,0-.49,0-.73,0a5.05,5.05,0,0,1-1.15-.33,3.5,3.5,0,0,1-.83.79,4.31,4.31,0,0,1-2.24.65,2.23,2.23,0,0,1-.36,0,4.2,4.2,0,0,1-2.9-1.61,5,5,0,0,1-1.09.12,4.53,4.53,0,0,1-4.11-2.58,6.21,6.21,0,0,1-3.14-1,5.91,5.91,0,0,1-1.74-1.71,6.31,6.31,0,0,1-2.24.42,5.92,5.92,0,0,1-3.75-1.34A4.52,4.52,0,0,1,28.84,41.45ZM73.56,85.06l-.06.08a9.48,9.48,0,0,1-5,3.25c-3.16.82-6.6.14-9.65,1-4.35,1.18-7.15,6.86-11.74,7-3.1.09-5.25-1.94-7.48-3.79a13.15,13.15,0,0,0-3.53-2.27c-1.51-.58-3.05-.76-4.3-1.88a28.86,28.86,0,0,0-2.28-2.15,6.1,6.1,0,0,0-3.67-1.12c-.49,0-1,.26-1.32-.23a.57.57,0,0,1,.24-.89c1.76-.57,3.83-1.38,5.6-.38a10.7,10.7,0,0,1,2.2,2.11C34.8,88,38.26,88,40.67,90c3.67,3.1,6.28,4.89,10.41,1,2-1.9,4.33-4.22,7.26-4.55a58.16,58.16,0,0,0,9-1.19,11.55,11.55,0,0,0,3.3-1.33c.9-.59,1.63-1.53,2.67-1.88C75.32,81.4,74.16,84.21,73.56,85.06ZM69.1,62.3c-1.28,1-2.76,2.25-4.43,2.55-2.41.43-4.91.18-7.27.85-.56.16-3.72,1.61-3.9.59-.11-.62.84-1.24,1.25-1.51a11.24,11.24,0,0,1,4-1.52c4.75-.89,7.41-1.52,10.9-4.81a19.71,19.71,0,0,1,7-4.26,35.08,35.08,0,0,1,4-1.1c.68-.15,3.43-1.17,3.91-.55,1.54,2-6.47,3.54-7.24,3.78C73.75,57.48,72,60.07,69.1,62.3Z"/></g></g></svg>